<svg width="32" height="22" viewBox="0 0 32 22" fill="none" xmlns="http://www.w3.org/2000/svg">
<path d="M31.2077 20.7757L17.0407 1.24494C16.5265 0.537799 15.4738 0.537799 14.9635 1.24494L0.792523 20.7757C0.75765 20.8238 0.736758 20.8805 0.732165 20.9397C0.727572 20.9989 0.739456 21.0582 0.7665 21.111C0.793544 21.1639 0.834692 21.2082 0.885382 21.2391C0.936073 21.27 0.994325 21.2862 1.05368 21.286H4.06708C4.27199 21.286 4.46484 21.1856 4.58538 21.0208L16.0001 5.2869L27.4148 21.0208C27.5354 21.1856 27.7282 21.286 27.9331 21.286H30.9465C31.2077 21.286 31.3604 20.9887 31.2077 20.7757Z" fill="currentColor"/>
</svg>
